<?xml version="1.0" encoding="UTF-8"?>
<svg version="1.1" xmlns="http://www.w3.org/2000/svg" width="128" height="128">
<path d="M0 0 C5.82207611 3.91870507 9.50851526 9.27067179 11.6171875 15.95703125 C13.31948763 25.04175541 11.72716192 32.95165184 6.90234375 40.78125 C3.19330762 45.7098675 -2.20984226 49.06994742 -8 51 C-9.69033574 51.11388787 -11.38427711 51.17800325 -13.078125 51.2109375 C-14.07457031 51.23929688 -15.07101563 51.26765625 -16.09765625 51.296875 C-18.18342304 51.34856687 -20.26938495 51.39295143 -22.35546875 51.4296875 C-28.30127736 51.61334182 -32.7563486 52.11528121 -38 55 C-41.25015365 58.46683057 -42.11169081 61.7114416 -42.20532227 66.37963867 C-42.22550415 67.27259644 -42.24568604 68.1655542 -42.26647949 69.08557129 C-42.28295532 70.02026245 -42.29943115 70.95495361 -42.31640625 71.91796875 C-42.33505737 72.77990845 -42.3537085 73.64184814 -42.3729248 74.52990723 C-42.44121161 77.74900077 -42.50136728 80.96826265 -42.5625 84.1875 C-42.706875 91.385625 -42.85125 98.58375 -43 106 C-61.15 106 -79.3 106 -98 106 C-98 86.2 -98 66.4 -98 46 C-93.05 47.485 -93.05 47.485 -88 49 C-76.96818175 51.29950829 -66.67546393 48.90257148 -57.2578125 42.80078125 C-49.4438094 36.56850542 -45.80175238 28.53755643 -43.5625 19 C-41.03863066 8.65986183 -35.8985558 2.6571046 -26.875 -2.9375 C-18.12695042 -6.14779342 -7.78250105 -4.88818247 0 0 Z " fill="#000000" transform="translate(106,12)"/>
</svg>
